<?xml version="1.0" standalone="no"?>
<!DOCTYPE svg PUBLIC "-//W3C//DTD SVG 20010904//EN"
 "http://www.w3.org/TR/2001/REC-SVG-20010904/DTD/svg10.dtd">
<svg version="1.0" xmlns="http://www.w3.org/2000/svg"
 width="128.000000pt" height="128.000000pt" viewBox="0 0 128.000000 128.000000"
 preserveAspectRatio="xMidYMid meet">
<metadata>
Created by potrace 1.11, written by Peter Selinger 2001-2013
</metadata>
<g transform="translate(0.000000,128.000000) scale(0.100000,-0.100000)"
fill="#000000" stroke="none">
<path d="M752 993 c-5 -10 -19 -45 -31 -78 -13 -33 -27 -69 -32 -80 -11 -26
-169 -437 -173 -450 -2 -5 -8 -23 -15 -39 -21 -52 -19 -71 8 -71 22 0 31 19
107 220 47 121 87 227 91 235 3 8 7 20 9 25 2 6 22 58 45 117 23 59 39 114 36
122 -8 21 -34 20 -45 -1z"/>
<path d="M195 824 c-96 -96 -175 -179 -175 -184 0 -19 342 -350 361 -350 43 0
13 43 -138 193 l-157 157 157 157 c86 86 157 164 157 174 0 48 -35 23 -205
-147z"/>
<path d="M877 976 c-4 -9 53 -73 155 -175 l161 -160 -161 -161 c-155 -156
-179 -190 -132 -190 16 0 360 334 360 350 0 3 -77 84 -170 178 -163 164 -200
192 -213 158z"/>
</g>
</svg>
